# xmcd
#
# Track frame offsets:
#	150
#	14229
#	27753
#
# Disc length: 549 seconds
#
# Revision: 0
# Processed by: cddbd v1.5.1PL0 Copyright (c) Steve Scherf et al.
# Submitted via: audiograbber 1.83.01
#
DISCID=1e022303
DTITLE=Die jungen Zillertaler - Auf der Bruck trara
DYEAR=2005
DGENRE=Apre Ski
TTITLE0=Die jungen Zillertaler - Auf der Bruck trara ( RMX by DJ Zillertaler )
TTITLE1=Die jungen Zillertaler - Auf der Bruck trara
TTITLE2=Die jungen Zillertaler - Auf der Bruck trara ( Karaoke Version )
EXTD=
EXTT0=
EXTT1=
EXTT2=
PLAYORDER=
